<svg width="229" height="58" viewBox="0 0 229 58" fill="none" xmlns="http://www.w3.org/2000/svg">
<path d="M0.366211 35.8135C0.366211 35.0322 0.415039 34.1777 0.512695 33.25C0.610352 32.2734 0.830078 31.3945 1.17188 30.6133C1.51367 29.832 2.00195 29.1729 2.63672 28.6357C3.32031 28.0986 4.22363 27.8301 5.34668 27.8301C5.34668 28.4648 5.27344 29.0508 5.12695 29.5879C5.0293 30.125 4.88281 30.6621 4.6875 31.1992C4.54102 31.7363 4.39453 32.3223 4.24805 32.957C4.15039 33.543 4.10156 34.2021 4.10156 34.9346C4.10156 36.79 4.3457 38.5234 4.83398 40.1348C5.32227 41.7461 6.05469 43.1621 7.03125 44.3828C8.05664 45.5547 9.30176 46.4824 10.7666 47.166C12.2803 47.8496 14.0625 48.1914 16.1133 48.1914C16.9922 48.1914 18.0664 47.9961 19.3359 47.6055C20.6055 47.2148 21.875 46.751 23.1445 46.2139C24.4141 45.6768 25.5859 45.1396 26.6602 44.6025C27.7344 44.0654 28.4912 43.6748 28.9307 43.4307C30.0049 42.8447 30.8594 42.0391 31.4941 41.0137C32.1289 39.9395 32.6172 38.792 32.959 37.5713C33.3008 36.3018 33.5205 35.0322 33.6182 33.7627C33.7158 32.4443 33.7646 31.2725 33.7646 30.2471C33.7646 28.5869 33.5938 26.9756 33.252 25.4131C32.959 23.8018 32.6172 22.2148 32.2266 20.6523C31.8848 19.0898 31.543 17.5273 31.2012 15.9648C30.9082 14.4023 30.7617 12.8154 30.7617 11.2041C31.2988 9.69043 32.1289 8.32324 33.252 7.10254C34.4238 5.83301 35.7422 4.75879 37.207 3.87988C38.7207 2.95215 40.332 2.21973 42.041 1.68262C43.75 1.14551 45.4102 0.828125 47.0215 0.730469C48.3398 1.07227 49.3408 1.51172 50.0244 2.04883C50.708 2.53711 51.1719 3.07422 51.416 3.66016C51.709 4.24609 51.7822 4.80762 51.6357 5.34473C51.4893 5.88184 51.2451 6.37012 50.9033 6.80957C50.3662 5.6377 49.6582 4.85645 48.7793 4.46582C47.9492 4.0752 46.9971 3.95312 45.9229 4.09961C44.8975 4.24609 43.8477 4.6123 42.7734 5.19824C41.6992 5.78418 40.6738 6.44336 39.6973 7.17578C38.7207 7.9082 37.8662 8.68945 37.1338 9.51953C36.4014 10.3008 35.8643 10.9844 35.5225 11.5703C35.5225 13.0352 35.6689 14.4756 35.9619 15.8916C36.3037 17.2588 36.6455 18.6504 36.9873 20.0664C37.3779 21.4336 37.7197 22.8252 38.0127 24.2412C38.3545 25.6084 38.5254 27.0244 38.5254 28.4893C38.5254 32.0049 37.9639 35.2275 36.8408 38.1572C35.7666 41.0381 34.1797 43.5283 32.0801 45.6279C30.0293 47.6787 27.5146 49.2656 24.5361 50.3887C21.6064 51.5117 18.3105 52.0732 14.6484 52.0732C12.3535 52.0732 10.3027 51.6094 8.49609 50.6816C6.73828 49.7539 5.24902 48.5332 4.02832 47.0195C2.85645 45.457 1.95312 43.6992 1.31836 41.7461C0.683594 39.793 0.366211 37.8154 0.366211 35.8135ZM43.5791 45.335C43.5791 44.9932 43.6035 44.4805 43.6523 43.7969C43.75 43.0645 43.8477 42.3564 43.9453 41.6729C44.043 40.9893 44.1406 40.3789 44.2383 39.8418C44.3359 39.2559 44.4336 38.8896 44.5312 38.7432L57.8613 12.083C58.0566 11.6924 58.4229 11.1553 58.96 10.4717C59.5459 9.73926 60.1562 9.00684 60.791 8.27441C61.4746 7.49316 62.1338 6.78516 62.7686 6.15039C63.4521 5.4668 64.0137 4.92969 64.4531 4.53906C64.7949 4.63672 65.0391 4.80762 65.1855 5.05176C65.332 5.2959 65.4297 5.58887 65.4785 5.93066C65.5273 6.22363 65.5273 6.5166 65.4785 6.80957C65.4785 7.10254 65.4785 7.34668 65.4785 7.54199C65.4785 7.78613 65.4785 8.12793 65.4785 8.56738C65.4785 9.00684 65.4541 9.22656 65.4053 9.22656C64.917 10.5449 64.1602 12.1074 63.1348 13.9141C62.1094 15.7207 60.9619 17.6494 59.6924 19.7002C58.4229 21.751 57.1045 23.8994 55.7373 26.1455C54.4189 28.3428 53.1982 30.54 52.0752 32.7373C51.001 34.8857 50.0977 36.9609 49.3652 38.9629C48.6816 40.9648 48.3398 42.7959 48.3398 44.4561C48.3398 45.335 48.584 46.043 49.0723 46.5801C49.6094 47.0684 50.1709 47.5078 50.7568 47.8984C51.3428 48.2891 51.8799 48.6797 52.3682 49.0703C52.9053 49.4609 53.1738 49.998 53.1738 50.6816C53.1738 51.1211 52.9785 51.4629 52.5879 51.707C52.1973 51.9023 51.7334 52 51.1963 52C49.1455 52 47.3633 51.4385 45.8496 50.3154C44.3359 49.1436 43.5791 47.4834 43.5791 45.335ZM63.1348 45.8477C63.1348 45.6523 63.1348 45.2617 63.1348 44.6758C63.1836 44.041 63.208 43.626 63.208 43.4307C64.7705 39.8662 66.7725 36.5703 69.2139 33.543C71.6553 30.5156 74.4141 27.8301 77.4902 25.4863C77.5879 25.4863 77.7344 25.4619 77.9297 25.4131C78.1738 25.3154 78.3447 25.2666 78.4424 25.2666C79.7607 25.2666 80.835 25.5596 81.665 26.1455C82.5439 26.6826 83.2275 27.415 83.7158 28.3428C84.2529 29.2217 84.6191 30.2227 84.8145 31.3457C85.0098 32.4199 85.1074 33.4697 85.1074 34.4951C85.1074 36.3994 84.668 38.4014 83.7891 40.501C82.9102 42.5518 81.7139 44.4561 80.2002 46.2139C78.7354 47.9229 77.0508 49.3389 75.1465 50.4619C73.2422 51.5361 71.2646 52.0732 69.2139 52.0732C67.1631 52.0732 65.625 51.5361 64.5996 50.4619C63.623 49.3389 63.1348 47.8008 63.1348 45.8477ZM68.8477 44.9688C68.8477 45.5059 69.0674 45.8721 69.5068 46.0674C69.9463 46.2627 70.3857 46.3604 70.8252 46.3604C72.0459 46.3604 73.2178 46.043 74.3408 45.4082C75.5127 44.7246 76.5381 43.8945 77.417 42.918C78.3447 41.8926 79.0771 40.7695 79.6143 39.5488C80.1514 38.3281 80.4199 37.1562 80.4199 36.0332C80.4199 35.4961 80.3711 34.9102 80.2734 34.2754C80.2246 33.5918 80.0781 33.0059 79.834 32.5176C79.5898 31.9805 79.1992 31.5654 78.6621 31.2725C78.1738 30.9795 77.4658 30.9307 76.5381 31.126C75.8545 31.2725 75.0732 31.9072 74.1943 33.0303C73.3154 34.1533 72.4609 35.4717 71.6309 36.9854C70.8496 38.4502 70.1904 39.9395 69.6533 41.4531C69.1162 42.918 68.8477 44.0898 68.8477 44.9688ZM87.8906 47.2393C88.0859 45.2373 88.623 43.4062 89.502 41.7461C90.4297 40.0371 91.5039 38.4258 92.7246 36.9121C93.9941 35.3496 95.2881 33.8848 96.6064 32.5176C97.9736 31.1016 99.1943 29.6855 100.269 28.2695C101.099 28.2695 101.636 28.4648 101.88 28.8555C102.173 29.1973 102.319 29.6367 102.319 30.1738C101.929 30.6133 101.318 31.4189 100.488 32.5908C99.6582 33.7139 98.8037 34.9346 97.9248 36.2529C97.0947 37.5713 96.3379 38.8164 95.6543 39.9883C95.0195 41.1602 94.6533 41.9902 94.5557 42.4785C94.165 43.9434 94.165 44.8711 94.5557 45.2617C94.9951 45.6035 95.6787 45.6035 96.6064 45.2617C97.583 44.8711 98.7305 44.2119 100.049 43.2842C101.367 42.3076 102.71 41.2334 104.077 40.0615C105.493 38.8896 106.86 37.6689 108.179 36.3994C109.497 35.1299 110.645 34.0068 111.621 33.0303H114.844C114.844 33.8604 114.722 34.666 114.478 35.4473C114.233 36.1797 113.965 36.9121 113.672 37.6445C113.379 38.377 113.11 39.1094 112.866 39.8418C112.622 40.5742 112.5 41.3311 112.5 42.1123C112.5 43.2354 112.842 43.9189 113.525 44.1631C114.258 44.4072 115.088 44.5293 116.016 44.5293C117.285 44.5293 118.604 44.2852 119.971 43.7969C121.387 43.2598 122.681 42.5518 123.853 41.6729C125.024 40.7451 125.977 39.6953 126.709 38.5234C127.49 37.3027 127.881 35.9844 127.881 34.5684C127.881 33.2988 127.686 32.1514 127.295 31.126C126.953 30.0518 126.782 28.8799 126.782 27.6104C126.782 26.0967 127.612 25.3398 129.272 25.3398C130.005 25.3398 130.64 25.6572 131.177 26.292C131.714 26.9268 132.153 27.6836 132.495 28.5625C132.886 29.4414 133.154 30.3447 133.301 31.2725C133.496 32.2002 133.594 32.957 133.594 33.543C133.594 36.082 132.983 38.3281 131.763 40.2812C130.542 42.2344 128.979 43.8701 127.075 45.1885C125.171 46.5068 123.047 47.5078 120.703 48.1914C118.408 48.875 116.162 49.2168 113.965 49.2168C112.109 49.2168 110.645 48.5576 109.57 47.2393C108.496 45.8721 107.935 44.2852 107.886 42.4785C106.47 42.918 105.176 43.6748 104.004 44.749C102.832 45.7744 101.66 46.8486 100.488 47.9717C99.3164 49.0459 98.0957 49.998 96.8262 50.8281C95.5566 51.6582 94.165 52.0732 92.6514 52.0732C92.2607 52.0732 91.7725 51.9023 91.1865 51.5605C90.6494 51.2188 90.1123 50.8037 89.5752 50.3154C89.0869 49.8271 88.6719 49.3145 88.3301 48.7773C87.9883 48.1914 87.8418 47.6787 87.8906 47.2393ZM190.942 48.6309C190.942 45.7988 191.309 42.9424 192.041 40.0615C192.822 37.1318 193.774 34.251 194.897 31.4189C196.069 28.5869 197.314 25.8525 198.633 23.2158C199.951 20.5303 201.196 18.0156 202.368 15.6719V14.7197C201.831 15.3057 200.977 16.2334 199.805 17.5029C198.682 18.7236 197.388 20.1152 195.923 21.6777C194.507 23.2402 192.993 24.9004 191.382 26.6582C189.819 28.3672 188.306 30.0029 186.841 31.5654C185.425 33.1279 184.155 34.5439 183.032 35.8135C181.909 37.0342 181.079 37.9375 180.542 38.5234C180.005 39.1094 179.492 39.9883 179.004 41.1602C178.516 42.2832 177.979 43.4307 177.393 44.6025C176.807 45.7744 176.147 46.7998 175.415 47.6787C174.731 48.5576 173.95 48.9971 173.071 48.9971C172.339 48.9971 171.753 48.9238 171.313 48.7773C170.923 48.6309 170.63 48.4111 170.435 48.1182C170.239 47.7764 170.117 47.3613 170.068 46.873C170.02 46.3848 169.995 45.7988 169.995 45.1152C169.995 41.502 170.508 38.0107 171.533 34.6416C172.607 31.2236 173.73 27.7568 174.902 24.2412V23.2891C174.805 23.3867 174.634 23.5576 174.39 23.8018C174.146 23.9971 173.999 24.1436 173.95 24.2412C172.778 25.999 171.582 27.9033 170.361 29.9541C169.141 31.9561 167.871 33.958 166.553 35.96C165.234 37.9131 163.818 39.793 162.305 41.5996C160.791 43.4062 159.155 45.0176 157.397 46.4336C155.64 47.8008 153.711 48.8994 151.611 49.7295C149.561 50.5596 147.29 50.9746 144.8 50.9746C144.263 50.9746 143.53 50.9502 142.603 50.9014C141.724 50.8525 140.845 50.7061 139.966 50.4619C139.136 50.2178 138.403 49.8271 137.769 49.29C137.183 48.7529 136.89 47.9961 136.89 47.0195C136.89 46.6289 137.109 46.1406 137.549 45.5547C138.037 44.9199 138.452 44.4805 138.794 44.2363C139.478 45.3594 140.039 46.1162 140.479 46.5068C140.967 46.8486 141.65 47.0195 142.529 47.0195C143.994 47.0195 145.532 46.7998 147.144 46.3604C148.804 45.8721 150.391 45.2373 151.904 44.4561C153.467 43.6748 154.932 42.7715 156.299 41.7461C157.666 40.7207 158.813 39.6465 159.741 38.5234C160.474 37.5469 161.353 36.3018 162.378 34.7881C163.452 33.2256 164.575 31.541 165.747 29.7344C166.968 27.8789 168.213 25.999 169.482 24.0947C170.752 22.1904 171.973 20.3838 173.145 18.6748C174.365 16.917 175.488 15.3545 176.514 13.9873C177.539 12.6201 178.418 11.5947 179.15 10.9111C179.834 10.9111 180.347 11.0332 180.688 11.2773C181.03 11.4727 181.274 11.7656 181.421 12.1562C181.567 12.5469 181.641 13.0107 181.641 13.5479C181.641 14.085 181.641 14.6465 181.641 15.2324C181.641 17.2832 181.323 19.2852 180.688 21.2383C180.103 23.1914 179.443 25.0957 178.711 26.9512C177.979 28.7578 177.295 30.54 176.66 32.2979C176.074 34.0557 175.781 35.7891 175.781 37.498C175.781 37.5957 175.781 37.7666 175.781 38.0107C175.83 38.2549 175.854 38.4258 175.854 38.5234C180.444 33.4453 184.399 29.0508 187.72 25.3398C191.04 21.6289 193.848 18.4795 196.143 15.8916C198.486 13.2549 200.391 11.1309 201.855 9.51953C203.32 7.85938 204.492 6.58984 205.371 5.71094C206.25 4.7832 206.909 4.14844 207.349 3.80664C207.837 3.46484 208.228 3.29395 208.521 3.29395C209.009 3.29395 209.375 3.44043 209.619 3.7334C209.863 4.02637 210.01 4.36816 210.059 4.75879C210.156 5.14941 210.181 5.56445 210.132 6.00391C210.132 6.44336 210.132 6.80957 210.132 7.10254C210.132 9.15332 209.741 11.2529 208.96 13.4014C208.228 15.501 207.275 17.6738 206.104 19.9199C204.98 22.1172 203.735 24.3633 202.368 26.6582C201.05 28.9043 199.805 31.2236 198.633 33.6162C197.51 36.0088 196.558 38.4502 195.776 40.9404C195.044 43.3818 194.678 45.8965 194.678 48.4844C194.678 49.8027 194.702 50.7793 194.751 51.4141C194.8 52 194.946 52.4883 195.19 52.8789C195.435 53.3184 195.825 53.7578 196.362 54.1973C196.899 54.6855 197.656 55.4424 198.633 56.4678C197.51 57.1025 196.411 57.3467 195.337 57.2002C194.312 57.1025 193.408 56.6875 192.627 55.9551C191.895 55.2227 191.357 54.2217 191.016 52.9521C190.674 51.6826 190.649 50.2422 190.942 48.6309ZM206.616 45.8477C206.616 45.6523 206.616 45.2617 206.616 44.6758C206.665 44.041 206.689 43.626 206.689 43.4307C208.252 39.8662 210.254 36.5703 212.695 33.543C215.137 30.5156 217.896 27.8301 220.972 25.4863C221.069 25.4863 221.216 25.4619 221.411 25.4131C221.655 25.3154 221.826 25.2666 221.924 25.2666C223.242 25.2666 224.316 25.5596 225.146 26.1455C226.025 26.6826 226.709 27.415 227.197 28.3428C227.734 29.2217 228.101 30.2227 228.296 31.3457C228.491 32.4199 228.589 33.4697 228.589 34.4951C228.589 36.3994 228.149 38.4014 227.271 40.501C226.392 42.5518 225.195 44.4561 223.682 46.2139C222.217 47.9229 220.532 49.3389 218.628 50.4619C216.724 51.5361 214.746 52.0732 212.695 52.0732C210.645 52.0732 209.106 51.5361 208.081 50.4619C207.104 49.3389 206.616 47.8008 206.616 45.8477ZM212.329 44.9688C212.329 45.5059 212.549 45.8721 212.988 46.0674C213.428 46.2627 213.867 46.3604 214.307 46.3604C215.527 46.3604 216.699 46.043 217.822 45.4082C218.994 44.7246 220.02 43.8945 220.898 42.918C221.826 41.8926 222.559 40.7695 223.096 39.5488C223.633 38.3281 223.901 37.1562 223.901 36.0332C223.901 35.4961 223.853 34.9102 223.755 34.2754C223.706 33.5918 223.56 33.0059 223.315 32.5176C223.071 31.9805 222.681 31.5654 222.144 31.2725C221.655 30.9795 220.947 30.9307 220.02 31.126C219.336 31.2725 218.555 31.9072 217.676 33.0303C216.797 34.1533 215.942 35.4717 215.112 36.9854C214.331 38.4502 213.672 39.9395 213.135 41.4531C212.598 42.918 212.329 44.0898 212.329 44.9688Z" fill="black"/>
</svg>
